<svg width="1340" height="645" viewBox="0 0 1340 645" fill="none" xmlns="http://www.w3.org/2000/svg">
<path d="M618.936 59.04C618.68 59.04 618.456 59.0187 618.264 58.976C618.072 58.944 617.901 58.896 617.752 58.832V57.616C617.923 57.6693 618.104 57.7067 618.296 57.728C618.488 57.76 618.691 57.776 618.904 57.776C619.171 57.776 619.421 57.7227 619.656 57.616C619.901 57.5093 620.099 57.3227 620.248 57.056C620.397 56.8 620.472 56.4267 620.472 55.936V44.576H621.912V55.824C621.912 56.9227 621.64 57.7333 621.096 58.256C620.552 58.7787 619.832 59.04 618.936 59.04ZM631.871 51.696C631.871 53.1147 631.508 54.2133 630.783 54.992C630.068 55.7707 629.098 56.16 627.871 56.16C627.114 56.16 626.436 55.9893 625.839 55.648C625.252 55.296 624.788 54.7893 624.447 54.128C624.106 53.456 623.935 52.6453 623.935 51.696C623.935 50.2773 624.287 49.184 624.991 48.416C625.706 47.648 626.682 47.264 627.919 47.264C628.687 47.264 629.37 47.44 629.967 47.792C630.564 48.1333 631.028 48.6347 631.359 49.296C631.7 49.9467 631.871 50.7467 631.871 51.696ZM625.391 51.696C625.391 52.7093 625.588 53.5147 625.983 54.112C626.388 54.6987 627.028 54.992 627.903 54.992C628.767 54.992 629.402 54.6987 629.807 54.112C630.212 53.5147 630.415 52.7093 630.415 51.696C630.415 50.6827 630.212 49.888 629.807 49.312C629.402 48.736 628.762 48.448 627.887 48.448C627.012 48.448 626.378 48.736 625.983 49.312C625.588 49.888 625.391 50.6827 625.391 51.696ZM635.19 56H633.782V43.84H635.19V56ZM636.244 47.424H637.748L639.604 52.304C639.764 52.7413 639.908 53.152 640.036 53.536C640.164 53.92 640.26 54.288 640.324 54.64H640.388C640.452 54.3733 640.553 54.0267 640.692 53.6C640.83 53.1627 640.974 52.7253 641.124 52.288L642.868 47.424H644.388L640.692 57.184C640.382 57.9947 639.993 58.64 639.524 59.12C639.054 59.6 638.404 59.84 637.572 59.84C637.316 59.84 637.092 59.824 636.9 59.792C636.708 59.7707 636.542 59.744 636.404 59.712V58.592C636.521 58.6133 636.66 58.6347 636.82 58.656C636.99 58.6773 637.166 58.688 637.348 58.688C637.838 58.688 638.233 58.5493 638.532 58.272C638.83 57.9947 639.07 57.6267 639.252 57.168L639.7 56.032L636.244 47.424ZM650.892 56H649.452V44.576H655.836V45.84H650.892V49.888H655.532V51.152H650.892V56ZM660.485 47.28C661.53 47.28 662.304 47.5093 662.805 47.968C663.306 48.4267 663.557 49.1573 663.557 50.16V56H662.533L662.261 54.784H662.197C661.824 55.2533 661.429 55.6 661.013 55.824C660.597 56.048 660.032 56.16 659.317 56.16C658.538 56.16 657.893 55.9573 657.381 55.552C656.869 55.136 656.613 54.4907 656.613 53.616C656.613 52.7627 656.949 52.1067 657.621 51.648C658.293 51.1787 659.328 50.9227 660.725 50.88L662.181 50.832V50.32C662.181 49.6053 662.026 49.1093 661.717 48.832C661.408 48.5547 660.97 48.416 660.405 48.416C659.957 48.416 659.53 48.4853 659.125 48.624C658.72 48.752 658.341 48.9013 657.989 49.072L657.557 48.016C657.93 47.8133 658.373 47.6427 658.885 47.504C659.397 47.3547 659.93 47.28 660.485 47.28ZM662.165 51.808L660.901 51.856C659.834 51.8987 659.093 52.0693 658.677 52.368C658.272 52.6667 658.069 53.088 658.069 53.632C658.069 54.112 658.213 54.464 658.501 54.688C658.8 54.912 659.178 55.024 659.637 55.024C660.352 55.024 660.949 54.8267 661.429 54.432C661.92 54.0267 662.165 53.408 662.165 52.576V51.808ZM668.75 55.008C668.963 55.008 669.182 54.992 669.406 54.96C669.63 54.928 669.811 54.8853 669.95 54.832V55.904C669.8 55.9787 669.587 56.0373 669.31 56.08C669.032 56.1333 668.766 56.16 668.51 56.16C668.062 56.16 667.646 56.0853 667.262 55.936C666.888 55.776 666.584 55.504 666.35 55.12C666.115 54.736 665.998 54.1973 665.998 53.504V48.512H664.782V47.84L666.014 47.28L666.574 45.456H667.406V47.424H669.886V48.512H667.406V53.472C667.406 53.9947 667.528 54.384 667.774 54.64C668.03 54.8853 668.355 55.008 668.75 55.008ZM672.755 43.84V47.408C672.755 47.8347 672.728 48.2347 672.675 48.608H672.771C673.048 48.1707 673.422 47.84 673.891 47.616C674.371 47.392 674.888 47.28 675.443 47.28C676.478 47.28 677.256 47.5307 677.779 48.032C678.312 48.5227 678.579 49.3173 678.579 50.416V56H677.187V50.512C677.187 49.136 676.547 48.448 675.267 48.448C674.307 48.448 673.646 48.72 673.283 49.264C672.931 49.7973 672.755 50.5653 672.755 51.568V56H671.347V43.84H672.755ZM684.229 47.264C684.955 47.264 685.584 47.424 686.117 47.744C686.651 48.064 687.056 48.5173 687.333 49.104C687.621 49.68 687.765 50.3573 687.765 51.136V51.984H681.893C681.915 52.9547 682.16 53.696 682.629 54.208C683.109 54.7093 683.776 54.96 684.629 54.96C685.173 54.96 685.653 54.912 686.069 54.816C686.496 54.7093 686.933 54.56 687.381 54.368V55.6C686.944 55.792 686.512 55.9307 686.085 56.016C685.659 56.112 685.152 56.16 684.565 56.16C683.744 56.16 683.024 55.9947 682.405 55.664C681.787 55.3333 681.301 54.8427 680.949 54.192C680.608 53.5413 680.437 52.736 680.437 51.776C680.437 50.8373 680.592 50.032 680.901 49.36C681.221 48.688 681.664 48.1707 682.229 47.808C682.805 47.4453 683.472 47.264 684.229 47.264ZM684.213 48.416C683.541 48.416 683.008 48.6347 682.613 49.072C682.229 49.4987 682 50.096 681.925 50.864H686.293C686.283 50.1387 686.112 49.552 685.781 49.104C685.451 48.6453 684.928 48.416 684.213 48.416ZM693.629 47.264C693.789 47.264 693.959 47.2747 694.141 47.296C694.322 47.3067 694.487 47.328 694.637 47.36L694.461 48.656C694.322 48.624 694.167 48.5973 693.997 48.576C693.826 48.5547 693.671 48.544 693.533 48.544C693.095 48.544 692.685 48.6667 692.301 48.912C691.917 49.1467 691.607 49.4827 691.373 49.92C691.149 50.3467 691.037 50.848 691.037 51.424V56H689.629V47.424H690.781L690.941 48.992H691.005C691.271 48.5227 691.623 48.1173 692.061 47.776C692.509 47.4347 693.031 47.264 693.629 47.264Z" fill="#D9D9D9"/>
<rect x="607.5" y="0.5" width="99" height="99" rx="49.5" stroke="#D9D9D9" stroke-dasharray="6 6"/>
<path d="M1256.44 604.04C1256.18 604.04 1255.96 604.019 1255.76 603.976C1255.57 603.944 1255.4 603.896 1255.25 603.832V602.616C1255.42 602.669 1255.6 602.707 1255.8 602.728C1255.99 602.76 1256.19 602.776 1256.4 602.776C1256.67 602.776 1256.92 602.723 1257.16 602.616C1257.4 602.509 1257.6 602.323 1257.75 602.056C1257.9 601.8 1257.97 601.427 1257.97 600.936V589.576H1259.41V600.824C1259.41 601.923 1259.14 602.733 1258.6 603.256C1258.05 603.779 1257.33 604.04 1256.44 604.04ZM1269.37 596.696C1269.37 598.115 1269.01 599.213 1268.28 599.992C1267.57 600.771 1266.6 601.16 1265.37 601.16C1264.61 601.16 1263.94 600.989 1263.34 600.648C1262.75 600.296 1262.29 599.789 1261.95 599.128C1261.61 598.456 1261.43 597.645 1261.43 596.696C1261.43 595.277 1261.79 594.184 1262.49 593.416C1263.21 592.648 1264.18 592.264 1265.42 592.264C1266.19 592.264 1266.87 592.44 1267.47 592.792C1268.06 593.133 1268.53 593.635 1268.86 594.296C1269.2 594.947 1269.37 595.747 1269.37 596.696ZM1262.89 596.696C1262.89 597.709 1263.09 598.515 1263.48 599.112C1263.89 599.699 1264.53 599.992 1265.4 599.992C1266.27 599.992 1266.9 599.699 1267.31 599.112C1267.71 598.515 1267.91 597.709 1267.91 596.696C1267.91 595.683 1267.71 594.888 1267.31 594.312C1266.9 593.736 1266.26 593.448 1265.39 593.448C1264.51 593.448 1263.88 593.736 1263.48 594.312C1263.09 594.888 1262.89 595.683 1262.89 596.696ZM1272.69 601H1271.28V588.84H1272.69V601ZM1273.74 592.424H1275.25L1277.1 597.304C1277.26 597.741 1277.41 598.152 1277.54 598.536C1277.66 598.92 1277.76 599.288 1277.82 599.64H1277.89C1277.95 599.373 1278.05 599.027 1278.19 598.6C1278.33 598.163 1278.47 597.725 1278.62 597.288L1280.37 592.424H1281.89L1278.19 602.184C1277.88 602.995 1277.49 603.64 1277.02 604.12C1276.55 604.6 1275.9 604.84 1275.07 604.84C1274.82 604.84 1274.59 604.824 1274.4 604.792C1274.21 604.771 1274.04 604.744 1273.9 604.712V603.592C1274.02 603.613 1274.16 603.635 1274.32 603.656C1274.49 603.677 1274.67 603.688 1274.85 603.688C1275.34 603.688 1275.73 603.549 1276.03 603.272C1276.33 602.995 1276.57 602.627 1276.75 602.168L1277.2 601.032L1273.74 592.424ZM1293.43 597.944C1293.43 598.957 1293.06 599.747 1292.33 600.312C1291.59 600.877 1290.6 601.16 1289.35 601.16C1288.71 601.16 1288.12 601.112 1287.58 601.016C1287.03 600.92 1286.58 600.787 1286.22 600.616V599.24C1286.6 599.411 1287.07 599.565 1287.64 599.704C1288.22 599.843 1288.81 599.912 1289.42 599.912C1290.26 599.912 1290.9 599.747 1291.34 599.416C1291.77 599.085 1291.99 598.637 1291.99 598.072C1291.99 597.699 1291.91 597.384 1291.75 597.128C1291.59 596.872 1291.31 596.637 1290.92 596.424C1290.53 596.211 1289.99 595.976 1289.3 595.72C1288.32 595.368 1287.59 594.936 1287.1 594.424C1286.61 593.912 1286.36 593.213 1286.36 592.328C1286.36 591.731 1286.51 591.213 1286.82 590.776C1287.13 590.339 1287.56 590.003 1288.1 589.768C1288.65 589.533 1289.28 589.416 1290.01 589.416C1290.63 589.416 1291.2 589.475 1291.72 589.592C1292.24 589.709 1292.72 589.864 1293.16 590.056L1292.71 591.288C1292.32 591.117 1291.89 590.973 1291.42 590.856C1290.95 590.739 1290.47 590.68 1289.98 590.68C1289.26 590.68 1288.72 590.835 1288.36 591.144C1288 591.443 1287.82 591.843 1287.82 592.344C1287.82 592.728 1287.9 593.048 1288.06 593.304C1288.22 593.56 1288.48 593.795 1288.84 594.008C1289.2 594.211 1289.69 594.424 1290.31 594.648C1290.98 594.893 1291.55 595.16 1292.01 595.448C1292.48 595.725 1292.83 596.061 1293.06 596.456C1293.31 596.851 1293.43 597.347 1293.43 597.944ZM1299.3 592.264C1300.36 592.264 1301.21 592.632 1301.85 593.368C1302.5 594.104 1302.82 595.213 1302.82 596.696C1302.82 598.157 1302.5 599.267 1301.85 600.024C1301.21 600.781 1300.35 601.16 1299.29 601.16C1298.62 601.16 1298.07 601.037 1297.64 600.792C1297.21 600.547 1296.87 600.253 1296.63 599.912H1296.53C1296.54 600.093 1296.56 600.323 1296.58 600.6C1296.61 600.877 1296.63 601.117 1296.63 601.32V604.84H1295.22V592.424H1296.37L1296.57 593.592H1296.63C1296.89 593.219 1297.22 592.904 1297.64 592.648C1298.05 592.392 1298.61 592.264 1299.3 592.264ZM1299.05 593.448C1298.17 593.448 1297.55 593.693 1297.19 594.184C1296.83 594.675 1296.64 595.421 1296.63 596.424V596.696C1296.63 597.752 1296.8 598.568 1297.14 599.144C1297.49 599.709 1298.14 599.992 1299.08 599.992C1299.59 599.992 1300.02 599.853 1300.36 599.576C1300.7 599.288 1300.95 598.893 1301.11 598.392C1301.28 597.891 1301.37 597.32 1301.37 596.68C1301.37 595.699 1301.17 594.915 1300.79 594.328C1300.42 593.741 1299.83 593.448 1299.05 593.448ZM1305.46 589.208C1305.68 589.208 1305.86 589.283 1306.02 589.432C1306.2 589.571 1306.28 589.795 1306.28 590.104C1306.28 590.413 1306.2 590.643 1306.02 590.792C1305.86 590.931 1305.68 591 1305.46 591C1305.23 591 1305.03 590.931 1304.87 590.792C1304.71 590.643 1304.63 590.413 1304.63 590.104C1304.63 589.795 1304.71 589.571 1304.87 589.432C1305.03 589.283 1305.23 589.208 1305.46 589.208ZM1306.15 592.424V601H1304.74V592.424H1306.15ZM1312.55 592.264C1312.71 592.264 1312.88 592.275 1313.06 592.296C1313.24 592.307 1313.41 592.328 1313.56 592.36L1313.38 593.656C1313.24 593.624 1313.09 593.597 1312.92 593.576C1312.75 593.555 1312.59 593.544 1312.45 593.544C1312.02 593.544 1311.61 593.667 1311.22 593.912C1310.84 594.147 1310.53 594.483 1310.29 594.92C1310.07 595.347 1309.96 595.848 1309.96 596.424V601H1308.55V592.424H1309.7L1309.86 593.992H1309.93C1310.19 593.523 1310.54 593.117 1310.98 592.776C1311.43 592.435 1311.95 592.264 1312.55 592.264ZM1315.56 589.208C1315.77 589.208 1315.96 589.283 1316.12 589.432C1316.29 589.571 1316.38 589.795 1316.38 590.104C1316.38 590.413 1316.29 590.643 1316.12 590.792C1315.96 590.931 1315.77 591 1315.56 591C1315.32 591 1315.13 590.931 1314.97 590.792C1314.81 590.643 1314.73 590.413 1314.73 590.104C1314.73 589.795 1314.81 589.571 1314.97 589.432C1315.13 589.283 1315.32 589.208 1315.56 589.208ZM1316.25 592.424V601H1314.84V592.424H1316.25ZM1321.51 600.008C1321.72 600.008 1321.94 599.992 1322.16 599.96C1322.39 599.928 1322.57 599.885 1322.71 599.832V600.904C1322.56 600.979 1322.35 601.037 1322.07 601.08C1321.79 601.133 1321.52 601.16 1321.27 601.16C1320.82 601.16 1320.4 601.085 1320.02 600.936C1319.65 600.776 1319.34 600.504 1319.11 600.12C1318.87 599.736 1318.76 599.197 1318.76 598.504V593.512H1317.54V592.84L1318.77 592.28L1319.33 590.456H1320.16V592.424H1322.64V593.512H1320.16V598.472C1320.16 598.995 1320.29 599.384 1320.53 599.64C1320.79 599.885 1321.11 600.008 1321.51 600.008Z" fill="#D9D9D9"/>
<rect x="1240.5" y="545.5" width="99" height="99" rx="49.5" stroke="#D9D9D9" stroke-dasharray="6 6"/>
<path d="M21.436 604.04C21.18 604.04 20.956 604.019 20.764 603.976C20.572 603.944 20.4013 603.896 20.252 603.832V602.616C20.4227 602.669 20.604 602.707 20.796 602.728C20.988 602.76 21.1907 602.776 21.404 602.776C21.6707 602.776 21.9213 602.723 22.156 602.616C22.4013 602.509 22.5987 602.323 22.748 602.056C22.8973 601.8 22.972 601.427 22.972 600.936V589.576H24.412V600.824C24.412 601.923 24.14 602.733 23.596 603.256C23.052 603.779 22.332 604.04 21.436 604.04ZM34.371 596.696C34.371 598.115 34.0083 599.213 33.283 599.992C32.5683 600.771 31.5977 601.16 30.371 601.16C29.6137 601.16 28.9363 600.989 28.339 600.648C27.7523 600.296 27.2883 599.789 26.947 599.128C26.6057 598.456 26.435 597.645 26.435 596.696C26.435 595.277 26.787 594.184 27.491 593.416C28.2057 592.648 29.1817 592.264 30.419 592.264C31.187 592.264 31.8697 592.44 32.467 592.792C33.0643 593.133 33.5283 593.635 33.859 594.296C34.2003 594.947 34.371 595.747 34.371 596.696ZM27.891 596.696C27.891 597.709 28.0883 598.515 28.483 599.112C28.8883 599.699 29.5283 599.992 30.403 599.992C31.267 599.992 31.9017 599.699 32.307 599.112C32.7123 598.515 32.915 597.709 32.915 596.696C32.915 595.683 32.7123 594.888 32.307 594.312C31.9017 593.736 31.2617 593.448 30.387 593.448C29.5123 593.448 28.8777 593.736 28.483 594.312C28.0883 594.888 27.891 595.683 27.891 596.696ZM37.6905 601H36.2825V588.84H37.6905V601ZM38.7435 592.424H40.2475L42.1035 597.304C42.2635 597.741 42.4075 598.152 42.5355 598.536C42.6635 598.92 42.7595 599.288 42.8235 599.64H42.8875C42.9515 599.373 43.0528 599.027 43.1915 598.6C43.3302 598.163 43.4742 597.725 43.6235 597.288L45.3675 592.424H46.8875L43.1915 602.184C42.8822 602.995 42.4928 603.64 42.0235 604.12C41.5542 604.6 40.9035 604.84 40.0715 604.84C39.8155 604.84 39.5915 604.824 39.3995 604.792C39.2075 604.771 39.0422 604.744 38.9035 604.712V603.592C39.0208 603.613 39.1595 603.635 39.3195 603.656C39.4902 603.677 39.6662 603.688 39.8475 603.688C40.3382 603.688 40.7328 603.549 41.0315 603.272C41.3302 602.995 41.5702 602.627 41.7515 602.168L42.1995 601.032L38.7435 592.424ZM58.432 597.944C58.432 598.957 58.064 599.747 57.328 600.312C56.592 600.877 55.6 601.16 54.352 601.16C53.712 601.16 53.12 601.112 52.576 601.016C52.032 600.92 51.5787 600.787 51.216 600.616V599.24C51.6 599.411 52.0747 599.565 52.64 599.704C53.216 599.843 53.808 599.912 54.416 599.912C55.2587 599.912 55.8987 599.747 56.336 599.416C56.7733 599.085 56.992 598.637 56.992 598.072C56.992 597.699 56.912 597.384 56.752 597.128C56.592 596.872 56.3147 596.637 55.92 596.424C55.5253 596.211 54.9867 595.976 54.304 595.72C53.3227 595.368 52.5867 594.936 52.096 594.424C51.6053 593.912 51.36 593.213 51.36 592.328C51.36 591.731 51.5147 591.213 51.824 590.776C52.1333 590.339 52.56 590.003 53.104 589.768C53.648 589.533 54.2827 589.416 55.008 589.416C55.6267 589.416 56.1973 589.475 56.72 589.592C57.2427 589.709 57.7227 589.864 58.16 590.056L57.712 591.288C57.3173 591.117 56.8853 590.973 56.416 590.856C55.9467 590.739 55.4667 590.68 54.976 590.68C54.2613 590.68 53.7227 590.835 53.36 591.144C52.9973 591.443 52.816 591.843 52.816 592.344C52.816 592.728 52.896 593.048 53.056 593.304C53.216 593.56 53.4773 593.795 53.84 594.008C54.2027 594.211 54.6933 594.424 55.312 594.648C55.984 594.893 56.5493 595.16 57.008 595.448C57.4773 595.725 57.8293 596.061 58.064 596.456C58.3093 596.851 58.432 597.347 58.432 597.944ZM67.6773 596.696C67.6773 598.115 67.3146 599.213 66.5893 599.992C65.8746 600.771 64.9039 601.16 63.6773 601.16C62.9199 601.16 62.2426 600.989 61.6453 600.648C61.0586 600.296 60.5946 599.789 60.2533 599.128C59.9119 598.456 59.7413 597.645 59.7413 596.696C59.7413 595.277 60.0933 594.184 60.7973 593.416C61.5119 592.648 62.4879 592.264 63.7253 592.264C64.4933 592.264 65.1759 592.44 65.7733 592.792C66.3706 593.133 66.8346 593.635 67.1653 594.296C67.5066 594.947 67.6773 595.747 67.6773 596.696ZM61.1973 596.696C61.1973 597.709 61.3946 598.515 61.7893 599.112C62.1946 599.699 62.8346 599.992 63.7093 599.992C64.5733 599.992 65.2079 599.699 65.6133 599.112C66.0186 598.515 66.2213 597.709 66.2213 596.696C66.2213 595.683 66.0186 594.888 65.6133 594.312C65.2079 593.736 64.5679 593.448 63.6933 593.448C62.8186 593.448 62.1839 593.736 61.7893 594.312C61.3946 594.888 61.1973 595.683 61.1973 596.696ZM73.7167 592.264C74.7407 592.264 75.5141 592.515 76.0367 593.016C76.5594 593.517 76.8207 594.317 76.8207 595.416V601H75.4287V595.512C75.4287 594.136 74.7887 593.448 73.5087 593.448C72.5594 593.448 71.9034 593.715 71.5407 594.248C71.1781 594.781 70.9967 595.549 70.9967 596.552V601H69.5887V592.424H70.7247L70.9327 593.592H71.0127C71.2901 593.144 71.6741 592.813 72.1647 592.6C72.6554 592.376 73.1727 592.264 73.7167 592.264Z" fill="#D9D9D9"/>
<rect x="0.5" y="545.5" width="99" height="99" rx="49.5" stroke="#D9D9D9" stroke-dasharray="6 6"/>
</svg>
